<svg width="66" height="65" viewBox="0 0 66 65" fill="none" xmlns="http://www.w3.org/2000/svg">
<mask id="mask0_774_92" style="mask-type:alpha" maskUnits="userSpaceOnUse" x="0" y="0" width="66" height="65">
<path fill-rule="evenodd" clip-rule="evenodd" d="M0 64.9814L0 9.91821e-05H65.4571V64.9814H0Z" fill="white"/>
</mask>
<g mask="url(#mask0_774_92)">
<path fill-rule="evenodd" clip-rule="evenodd" d="M1.67212 30.0183C0.298694 47.0182 13.1137 61.9583 30.2376 63.3212C47.363 64.6847 62.412 51.9634 63.7849 34.963C65.1584 17.9632 52.3434 3.02357 35.219 1.66013C18.0946 0.296692 3.04503 13.0185 1.67212 30.0183ZM65.3511 35.0878C63.9086 52.9451 48.101 66.3086 30.1124 64.8765C12.1242 63.4445 -1.33664 47.7514 0.105932 29.8935C1.5485 12.0362 17.356 -1.32675 35.3442 0.105331C53.3328 1.53741 66.7937 17.2305 65.3511 35.0878Z" fill="#7C7C7C"/>
</g>
<path fill-rule="evenodd" clip-rule="evenodd" d="M49.531 34.4325L50.981 32.9812L49.531 31.5304L49.3809 31.3802L40.9896 22.9814L38.7266 25.246L44.8554 31.3802H13.981V34.5832H44.8554L38.7266 40.7169L40.9896 42.9814L49.3809 34.5832" fill="#7C7C7C"/>
</svg>
