<svg width="66" height="65" viewBox="0 0 66 65" fill="none" xmlns="http://www.w3.org/2000/svg">
<mask id="mask0_774_113" style="mask-type:alpha" maskUnits="userSpaceOnUse" x="0" y="0" width="66" height="65">
<path fill-rule="evenodd" clip-rule="evenodd" d="M65.457 64.9814V9.91821e-05H-2.28882e-05V64.9814H65.457Z" fill="white"/>
</mask>
<g mask="url(#mask0_774_113)">
<path fill-rule="evenodd" clip-rule="evenodd" d="M63.7849 30.0183C65.1583 47.0182 52.3433 61.9583 35.2195 63.3212C18.0941 64.6847 3.04501 51.9634 1.6721 34.963C0.298668 17.9632 13.1137 3.02357 30.2381 1.66013C47.3624 0.296692 62.412 13.0185 63.7849 30.0183ZM0.105911 35.0878C1.54848 52.9451 17.356 66.3086 35.3447 64.8765C53.3328 63.4445 66.7937 47.7514 65.3511 29.8935C63.9085 12.0362 48.101 -1.32675 30.1129 0.105331C12.1242 1.53741 -1.33666 17.2305 0.105911 35.0878Z" fill="#7C7C7C"/>
</g>
<path fill-rule="evenodd" clip-rule="evenodd" d="M15.9261 34.4325L14.4761 32.9812L15.9261 31.5304L16.0761 31.3802L24.4674 22.9814L26.7305 25.246L20.6017 31.3802H51.4761V34.5832H20.6017L26.7305 40.7169L24.4674 42.9814L16.0761 34.5832" fill="#7C7C7C"/>
</svg>
